<?xml version="1.0" encoding="iso-8859-1"?>
<!-- Generator: Adobe Illustrator 19.0.0, SVG Export Plug-In . SVG Version: 6.00 Build 0)  -->
<svg xmlns="http://www.w3.org/2000/svg" xmlns:xlink="http://www.w3.org/1999/xlink" version="1.1" id="Capa_1" x="0px" y="0px" viewBox="0 0 480.004 480.004" style="enable-background:new 0 0 480.004 480.004;" xml:space="preserve" width="512px" height="512px">
<g>
	<g>
		<path d="M423.618,85.472l-16-48c-1.386-4.195-5.911-6.472-10.106-5.086c-0.375,0.124-0.741,0.276-1.094,0.454l-48,24    c-3.954,1.975-5.559,6.782-3.584,10.736s6.782,5.559,10.736,3.584l26.144-13.072C312.914,183.912,187.442,264,56.002,264v16    c139.024,0,271.504-85.472,342.472-219.28l9.944,29.808c1.396,4.197,5.931,6.468,10.128,5.072S425.014,89.669,423.618,85.472z" fill="#bac63e"/>
	</g>
</g>
<g>
	<g>
		<path d="M472.002,0h-464c-4.418,0-8,3.582-8,8v360c0,4.418,3.582,8,8,8H149.17l-28.8,93.648c-1.299,4.224,1.072,8.701,5.296,10    c4.224,1.299,8.701-1.072,10-5.296L151.146,424h177.712l15.496,50.352c1.299,4.224,5.776,6.595,10,5.296    c4.224-1.299,6.595-5.776,5.296-10L330.834,376h141.168c4.418,0,8-3.582,8-8V8C480.002,3.582,476.42,0,472.002,0z M156.066,408    l9.848-32H314.09l9.848,32H156.066z M464.002,360h-448V16h448V360z" fill="#bac63e"/>
	</g>
</g>
<g>
	<g>
		<path d="M96.002,296h-32c-4.418,0-8,3.582-8,8v32c0,4.418,3.582,8,8,8h32c4.418,0,8-3.582,8-8v-32    C104.002,299.582,100.42,296,96.002,296z M88.002,328h-16v-16h16V328z" fill="#bac63e"/>
	</g>
</g>
<g>
	<g>
		<path d="M176.002,280h-32c-4.418,0-8,3.582-8,8v48c0,4.418,3.582,8,8,8h32c4.418,0,8-3.582,8-8v-48    C184.002,283.582,180.42,280,176.002,280z M168.002,328h-16v-32h16V328z" fill="#bac63e"/>
	</g>
</g>
<g>
	<g>
		<path d="M256.002,248h-32c-4.418,0-8,3.582-8,8v80c0,4.418,3.582,8,8,8h32c4.418,0,8-3.582,8-8v-80    C264.002,251.582,260.42,248,256.002,248z M248.002,328h-16v-64h16V328z" fill="#bac63e"/>
	</g>
</g>
<g>
	<g>
		<path d="M336.002,200h-32c-4.418,0-8,3.582-8,8v128c0,4.418,3.582,8,8,8h32c4.418,0,8-3.582,8-8V208    C344.002,203.582,340.42,200,336.002,200z M328.002,328h-16V216h16V328z" fill="#bac63e"/>
	</g>
</g>
<g>
	<g>
		<path d="M416.002,112h-32c-4.418,0-8,3.582-8,8v216c0,4.418,3.582,8,8,8h32c4.418,0,8-3.582,8-8V120    C424.002,115.582,420.42,112,416.002,112z M408.002,328h-16V128h16V328z" fill="#bac63e"/>
	</g>
</g>
<g>
</g>
<g>
</g>
<g>
</g>
<g>
</g>
<g>
</g>
<g>
</g>
<g>
</g>
<g>
</g>
<g>
</g>
<g>
</g>
<g>
</g>
<g>
</g>
<g>
</g>
<g>
</g>
<g>
</g>
</svg>
