<?xml version="1.0" encoding="iso-8859-1"?>
<!-- Generator: Adobe Illustrator 19.0.0, SVG Export Plug-In . SVG Version: 6.00 Build 0)  -->
<svg xmlns="http://www.w3.org/2000/svg" xmlns:xlink="http://www.w3.org/1999/xlink" version="1.1" id="Layer_1" x="0px" y="0px" viewBox="0 0 512.001 512.001" style="enable-background:new 0 0 512.001 512.001;" xml:space="preserve" width="512px" height="512px">
<g>
	<g>
		<path d="M481.283,441.672l-77.852-77.852c21.198-31.713,33.178-68.131,34.992-106.283h27.386c5.633,0,10.2-4.566,10.2-10.2    c0-66.066-25.727-128.177-72.444-174.893C356.848,25.727,294.737,0,228.671,0c-5.633,0-10.2,4.566-10.2,10.2v27.385    C107.394,42.923,18.668,134.961,18.668,247.338c0,115.796,94.207,210.003,210.003,210.003c41.859,0,81.958-12.16,116.484-35.242    l77.851,77.851c8.033,8.033,18.587,12.05,29.138,12.05c10.552,0,21.105-4.017,29.139-12.051    C497.35,483.883,497.35,457.739,481.283,441.672z M388.694,349.081l-12.62-12.62c-3.983-3.983-10.441-3.982-14.424,0    l-14.715,14.715l-19.98-19.98c17.23-20.165,28.381-45.672,30.576-73.658h60.477C416.283,290.264,406.26,321.547,388.694,349.081z     M238.871,20.626c117.047,5.197,211.316,99.465,216.513,216.512h-97.851c-4.953-63.159-55.503-113.708-118.662-118.662V20.626z     M238.871,138.958c51.902,4.846,93.334,46.278,98.18,98.179h-98.18V138.958z M228.671,257.537h108.388    c-5.161,55.26-51.802,98.662-108.388,98.662c-60.027,0-108.861-48.835-108.861-108.861c0-56.586,43.401-103.227,98.662-108.387    v108.387C218.472,252.97,223.038,257.537,228.671,257.537z M317.795,394.738l12.624,12.624    c-30.382,19.386-65.325,29.58-101.748,29.58c-104.548,0-189.604-85.056-189.604-189.604c0-101.128,79.578-184.018,179.405-189.334    v60.475c-66.525,5.217-119.061,61.017-119.061,128.859c0,71.275,57.986,129.26,129.26,129.26    c31.974,0,61.268-11.675,83.858-30.978l19.98,19.98l-14.714,14.714c-1.912,1.912-2.987,4.507-2.987,7.212    C314.808,390.231,315.883,392.826,317.795,394.738z M466.859,485.525c-8.112,8.114-21.314,8.115-29.428,0l-98-98l29.429-29.429    l97.999,97.999C474.972,464.21,474.972,477.412,466.859,485.525z" fill="#bac63e"/>
	</g>
</g>
<g>
	<g>
		<path d="M209.502,164.452c-1.919-5.297-7.768-8.034-13.064-6.117c-23.462,8.499-42.982,26.36-53.556,49.002    c-2.384,5.104-0.178,11.174,4.925,13.557c1.396,0.652,2.864,0.961,4.309,0.961c3.839,0,7.516-2.179,9.248-5.886    c8.298-17.771,23.614-31.787,42.02-38.453C208.682,175.597,211.42,169.748,209.502,164.452z" fill="#bac63e"/>
	</g>
</g>
<g>
	<g>
		<path d="M145.306,230.409c-5.615-0.453-10.528,3.749-10.972,9.364c-0.198,2.503-0.298,5.048-0.298,7.565    c0,5.633,4.566,10.2,10.2,10.2c5.633,0,10.2-4.566,10.2-10.2c0-1.983,0.08-3.987,0.235-5.957    C155.114,235.765,150.922,230.852,145.306,230.409z" fill="#bac63e"/>
	</g>
</g>
<g>
</g>
<g>
</g>
<g>
</g>
<g>
</g>
<g>
</g>
<g>
</g>
<g>
</g>
<g>
</g>
<g>
</g>
<g>
</g>
<g>
</g>
<g>
</g>
<g>
</g>
<g>
</g>
<g>
</g>
</svg>
